<svg width="113px" height="125px" viewBox="0 0 113 125" version="1.1" xmlns="http://www.w3.org/2000/svg" xmlns:xlink="http://www.w3.org/1999/xlink">
    <g id="Page-1" stroke="none" stroke-width="1" fill="none" fill-rule="evenodd">
        <g id="1-模板列表-全部模版搜索无结果" transform="translate(-943.000000, -459.000000)">
            <g id="分组-5" transform="translate(943.000000, 459.000000)">
                <path d="M14.9890358,119 C14.5948351,119 14.2752722,118.552285 14.2752722,118 C14.2752722,117.447715 14.5948351,117 14.9890358,117 L109.286236,117 C109.680437,117 110,117.447715 110,118 C110,118.552285 109.680437,119 109.286236,119 L14.9890358,119 Z M0.713763612,119 C0.319562854,119 0,118.552285 0,118 C0,117.447715 0.319562854,117 0.713763612,117 L9.63580876,117 C10.0300095,117 10.3495724,117.447715 10.3495724,118 C10.3495724,118.552285 10.0300095,119 9.63580876,119 L0.713763612,119 Z M98.6358088,123 C99.0300095,123 99.3495724,123.447715 99.3495724,124 C99.3495724,124.552285 99.0300095,125 98.6358088,125 L89.7137636,125 C89.3195629,125 89,124.552285 89,124 C89,123.447715 89.3195629,123 89.7137636,123 L98.6358088,123 Z M84.115959,123 C84.6645551,123 85.10928,123.447715 85.10928,124 C85.10928,124.552285 84.6645551,125 84.115959,125 L27.993321,125 C27.444725,125 27,124.552285 27,124 C27,123.447715 27.444725,123 27.993321,123 L84.115959,123 Z" id="合并形状-copy-2" fill="#BDBFC1" fill-rule="nonzero"></path>
                <g id="搜索无结果icon" transform="translate(1.000000, 0.000000)">
                    <path d="M0.942182706,99.6503257 L0.228576752,26.8512397 L28.2825069,26.8512397 L33.8753016,35.2759775 L70.2259547,35.2759775 C70.5252622,35.7665069 70.8522418,36.2383045 71.204724,36.6892006 L33.1171942,36.6892006 L27.5243995,28.2644628 L1.65572077,28.2644628 L2.28779614,92.7461406 L11.4202692,46.6363636 L83.0828164,46.6363636 L83.0828164,42.3956167 C83.5596381,42.3899272 84.0310496,42.361748 84.4960396,42.3120904 L84.4960396,46.6363636 L95.3447878,46.6363636 L93.24574,58.6487603 L103.844709,58.6487603 L88.2778009,89.3525897 L87.0173258,88.7135261 L101.54372,60.0619835 L86.4421488,60.0619835 L86.4421488,58.6487603 L91.8111033,58.6487603 L93.6632044,48.0495868 L12.5810422,48.0495868 L3.34233682,94.6957301 L22.2174307,58.6487603 L48.9917355,58.6487603 L48.9917355,60.0619835 L23.0726741,60.0619835 L2.37186371,99.5956404 L2.36461652,99.6322314 L48.9006955,99.6322314 L48.9006955,101.045455 L2.35144565,101.045455 C2.12071687,101.045455 1.89359042,100.988516 1.68998142,100.87973 C1.22029641,100.628783 0.950049324,100.149133 0.942215451,99.6503254 Z" id="合并形状" fill="#BEC2C6" fill-rule="nonzero"></path>
                    <path d="M48.1784809,72.2603359 L48.1804648,72.2603359 L48.1804648,58.6434847 C48.1804648,55.755691 46.4168781,53.2740719 43.8938078,52.1887552 L43.7853056,51.6923626 L77.5486158,51.6923626 C83.6311308,51.6923626 88.5619835,56.5545863 88.5619835,62.5524431 L88.5619835,105.992765 L48.1925788,106.002467 L48.1784809,72.2603359 Z" id="Combined-Shape-Copy" fill="#F1F2F7"></path>
                    <path d="M47.544733,106.00091 L81.4356868,105.992765 L81.4356868,62.5524431 C81.4356868,56.5545863 76.5048341,51.6923626 70.4223191,51.6923626 L76.9007707,51.6923626 C82.9832857,51.6923626 87.9141383,56.5545863 87.9141383,62.5524431 L87.9141383,105.992765 L47.5447336,106.002467 Z" id="Combined-Shape" fill="#BEC2C6" opacity="0.300000012"></path>
                    <path d="M49.6052114,104.588904 L87.1487603,104.579881 L87.1487603,62.5524431 C87.1487603,57.339556 82.8550287,53.1055858 77.5449461,53.105581 L47.4341517,53.0273912 C48.7923032,54.5376813 49.5936879,56.5174506 49.5936879,58.6434847 L49.5936879,73.673559 L49.5922946,73.673559 L49.6052114,104.588904 Z M45.3386981,53.0219498 C44.9005009,52.6957924 44.4229624,52.4183019 43.9143485,52.197629 L43.7853056,51.6046882 L44.1711736,51.6056902 L43.9143485,52.197629 L45.2952477,51.897101 L45.2324271,51.608446 L45.7866396,51.6098851 C46.3987793,52.0134584 46.9516071,52.4907925 47.4341517,53.0273912 L45.3386981,53.0219498 Z M48.1784809,72.2603359 L48.1804648,58.6434847 C48.1804648,55.763534 46.4264447,53.2875548 43.9143485,52.197629 L43.7853056,51.6046882 L77.5486158,51.6923626 C83.6311308,51.6923626 88.5619835,56.5545863 88.5619835,62.5524431 L88.5619835,105.992765 L48.1925788,106.002467 L48.1784809,72.2603359 Z M48.285124,58.6487603 L48.285124,57.9421488 C48.285124,55.1757424 46.3474576,52.9958678 44.0454545,52.9958678 C41.7434515,52.9958678 39.8057851,55.1757424 39.8057851,57.9421488 L39.8057851,58.6487603 L48.285124,58.6487603 Z M49.6983471,60.0619835 L38.392562,60.0619835 L38.392562,57.9421488 C38.392562,54.4298916 40.9234482,51.5826446 44.0454545,51.5826446 C47.1674609,51.5826446 49.6983471,54.4298916 49.6983471,57.9421488 L49.6983471,60.0619835 Z" id="Rectangle-4-Copy" fill="#BEC2C6" fill-rule="nonzero"></path>
                    <path d="M86.088843,43.1033058 C74.1861937,43.1033058 64.5371901,33.4543021 64.5371901,21.5516529 C64.5371901,9.64900367 74.1861937,0 86.088843,0 C97.9914922,0 107.640496,9.64900367 107.640496,21.5516529 C107.640496,33.4543021 97.9914922,43.1033058 86.088843,43.1033058 Z M86.088843,41.6900826 C97.2109906,41.6900826 106.227273,32.6738005 106.227273,21.5516529 C106.227273,10.4295053 97.2109906,1.41322314 86.088843,1.41322314 C74.9666953,1.41322314 65.9504132,10.4295053 65.9504132,21.5516529 C65.9504132,32.6738005 74.9666953,41.6900826 86.088843,41.6900826 Z" id="Oval-6" fill="#BEC2C6" fill-rule="nonzero"></path>
                    <path d="M103.017236,32.8798258 L110.665467,40.5280568 C112.329468,42.1920573 112.329468,44.8899352 110.665467,46.5539357 L110.665467,46.5539357 C109.001467,48.2179362 106.303589,48.2179362 104.639588,46.5539357 L96.9913574,38.9057048 L103.017236,32.8798258 Z" id="Rectangle-5" fill="#F1F2F7"></path>
                    <path d="M98.9899567,38.9057048 L105.638888,45.554636 C106.750991,46.6667386 108.554065,46.6667386 109.666168,45.554636 L109.666168,45.554636 C110.77827,44.4425335 110.77827,42.639459 109.666168,41.5273564 L103.017236,34.8784252 L98.9899567,38.9057048 Z M103.017236,32.8798258 L110.665467,40.5280568 C112.329468,42.1920573 112.329468,44.8899352 110.665467,46.5539357 L110.665467,46.5539357 C109.001467,48.2179362 106.303589,48.2179362 104.639588,46.5539357 L96.9913574,38.9057048 L103.017236,32.8798258 Z" id="Rectangle-5" fill="#BEC2C6" fill-rule="nonzero"></path>
                    <path d="M86.3008264,11.3057851 C88.0814876,11.3057851 89.4947107,11.8145455 90.5687603,12.8320661 C91.586281,13.7930579 92.0950413,15.0932231 92.0950413,16.732562 C92.0950413,17.9196694 91.7276033,18.993719 91.0209917,19.9264463 C90.7100826,20.3221488 89.9752066,21.0287603 88.7880992,22.1028099 C88.1097521,22.6963636 87.6575207,23.2333884 87.374876,23.7138843 C86.9791736,24.3922314 86.7813223,25.098843 86.7813223,25.8902479 L86.7813223,26.7099174 L85.0571901,26.7099174 L85.0571901,25.8902479 C85.0571901,25.0705785 85.2267769,24.307438 85.5659504,23.6290909 C85.9616529,22.781157 86.8095868,21.7353719 88.166281,20.5482645 C88.7880992,19.9264463 89.2403306,19.4742149 89.4664463,19.1915702 C90.06,18.4284298 90.3709091,17.6370248 90.3709091,16.7890909 C90.3709091,15.573719 90.0034711,14.6127273 89.325124,13.9061157 C88.5902479,13.1712397 87.5444628,12.8320661 86.2160331,12.8320661 C84.6897521,12.8320661 83.5591736,13.3408264 82.7960331,14.3583471 C82.117686,15.206281 81.7785124,16.3933884 81.7785124,17.8631405 L80.0826446,17.8631405 C80.0826446,15.941157 80.6196694,14.414876 81.6371901,13.2277686 C82.7677686,11.9276033 84.322314,11.3057851 86.3008264,11.3057851 Z M85.9333884,29.0558678 C86.3290909,29.0558678 86.6682645,29.1689256 86.9509091,29.4515702 C87.2335537,29.7059504 87.374876,30.045124 87.374876,30.4690909 C87.374876,30.8647934 87.2335537,31.2039669 86.9509091,31.4866116 C86.6682645,31.7409917 86.3290909,31.882314 85.9333884,31.882314 C85.537686,31.882314 85.1702479,31.7409917 84.8876033,31.4583471 C84.6049587,31.1757025 84.4919008,30.8647934 84.4919008,30.4690909 C84.4919008,30.045124 84.6049587,29.7059504 84.8876033,29.4515702 C85.1702479,29.1689256 85.537686,29.0558678 85.9333884,29.0558678 Z" id="？" fill="#BEC2C6"></path>
                    <path d="M56.0578512,63.7716942 L56.0578512,62.3584711 L81.5608864,62.3584711 L81.5608864,63.7716942 L56.0578512,63.7716942 Z M56.0578512,85.4411157 L56.0578512,84.0278926 L81.5608864,84.0278926 L81.5608864,85.4411157 L56.0578512,85.4411157 Z M56.0578512,74.606405 L56.0578512,73.1931818 L81.5608864,73.1931818 L81.5608864,74.606405 L56.0578512,74.606405 Z M56.0578512,96.2758264 L56.0578512,94.8626033 L81.5608864,94.8626033 L81.5608864,96.2758264 L56.0578512,96.2758264 Z" id="合并形状" fill="#BEC2C6" fill-rule="nonzero"></path>
                </g>
            </g>
        </g>
    </g>
</svg>
